<?xml version="1.0" encoding="UTF-8"?>
<svg id="Layer_1" data-name="Layer 1" xmlns="http://www.w3.org/2000/svg" viewBox="0 0 41.41 38.62">
  <defs>
    <style>
      .cls-1 {
        fill: #fff;
      }
    </style>
  </defs>
  <g>
    <path class="cls-1" d="m31.07,23.35h0s-.02.02-.02.02l-.48.29-21.54,13.21-1.31-2.14,18.22-11.17,3.45-2.11s.01,0,.02,0l.24-.15.12-.08,1.31,2.13Z"/>
    <path class="cls-1" d="m7.84,34.67c-.41.21-.69.63-.69,1.12,0,.7.56,1.26,1.26,1.26.27,0,.52-.09.73-.23"/>
    <path class="cls-1" d="m30.64,15.35c-.68-.38-1.46-.6-2.3-.6s-1.67.23-2.37.63l3.52,2.2.11.07c.58.4.96,1.07.96,1.83s-.37,1.4-.92,1.81c-.08.05-.16.1-.24.15,0,0-.01,0-.02,0l-3.45,2.11c.71.42,1.53.66,2.4.66.81,0,1.56-.2,2.23-.56.17-.09.33-.19.48-.29,0,0,.02-.01.02-.02,1.21-.86,2.01-2.27,2.01-3.87,0-1.78-.98-3.33-2.44-4.14Z"/>
    <path class="cls-1" d="m30.97,15.56l-1.33,2.13-.04-.02-.11-.07-3.52-2.2L5.86,2.82l-2.6-1.63L4.19.03c1-.12,2.01.09,2.87.58,0,0,.01,0,.02.01l.32.2,23.24,14.53.33.21Z"/>
    <g>
      <path class="cls-1" d="m0,4.61H0s0,.03,0,.03v.56s.02,25.27.02,25.27h2.51s-.01-21.37-.01-21.37v-4.04s0-.01,0-.02v-.28s0-.14,0-.14H0Z"/>
      <path class="cls-1" d="m.02,30.35c-.02.25.04.51.18.74.36.59,1.14.78,1.73.41.42-.26.63-.72.59-1.17"/>
      <path class="cls-1" d="m8.77,2.26c-.37-.59-.84-1.07-1.37-1.43l-.32-.2s-.01,0-.02-.01C6.19.12,5.18-.08,4.19.03c-.66.08-1.32.3-1.93.67C.9,1.54.11,2.95.01,4.43c0,.01,0,.02,0,.03C0,4.65,0,4.83.01,5.02c.04.75.27,1.5.69,2.19.46.75,1.09,1.32,1.82,1.7v-4.04s0-.01,0-.02c0-.09,0-.19,0-.28.05-.69.42-1.35,1.06-1.73.65-.4,1.42-.43,2.06-.14l.12.06.11.06,3.71,1.98c-.02-.81-.35-1.8-.8-2.54Z"/>
    </g>
  </g>
  <circle class="cls-1" cx="3.45" cy="37.16" r="1.45"/>
  <rect class="cls-1" x="40.28" y="4.57" width="1.14" height="29.63"/>
</svg>