<?xml version="1.0" encoding="UTF-8"?>
<svg id="Layer_1" data-name="Layer 1" xmlns="http://www.w3.org/2000/svg" viewBox="0 0 140.55 38.62">
  <defs>
    <style>
      .cls-1 {
        fill: #fff;
      }
    </style>
  </defs>
  <g>
    <path class="cls-1" d="m31.07,23.35h0s-.02.02-.02.02l-.48.29-21.54,13.21-1.31-2.14,18.22-11.17,3.45-2.11s.01,0,.02,0l.24-.15.12-.08,1.31,2.13Z"/>
    <path class="cls-1" d="m7.84,34.67c-.41.21-.69.63-.69,1.12,0,.7.56,1.26,1.26,1.26.27,0,.52-.09.73-.23"/>
    <path class="cls-1" d="m30.64,15.35c-.68-.38-1.46-.6-2.3-.6s-1.67.23-2.37.63l3.52,2.2.11.07c.58.4.96,1.07.96,1.83s-.37,1.4-.92,1.81c-.08.05-.16.1-.24.15,0,0-.01,0-.02,0l-3.45,2.11c.71.42,1.53.66,2.4.66.81,0,1.56-.2,2.23-.56.17-.09.33-.19.48-.29,0,0,.02-.01.02-.02,1.21-.86,2.01-2.27,2.01-3.87,0-1.78-.98-3.33-2.44-4.14Z"/>
    <path class="cls-1" d="m30.97,15.56l-1.33,2.13-.04-.02-.11-.07-3.52-2.2L5.86,2.82l-2.6-1.63L4.19.03c1-.12,2.01.09,2.87.58,0,0,.01,0,.02.01l.32.2,23.24,14.53.33.21Z"/>
    <g>
      <path class="cls-1" d="m0,4.61H0s0,.03,0,.03v.56s.02,25.27.02,25.27h2.51s-.01-21.37-.01-21.37v-4.04s0-.01,0-.02v-.28s0-.14,0-.14H0Z"/>
      <path class="cls-1" d="m.02,30.35c-.02.25.04.51.18.74.36.59,1.14.78,1.73.41.42-.26.63-.72.59-1.17"/>
      <path class="cls-1" d="m8.77,2.26c-.37-.59-.84-1.07-1.37-1.43l-.32-.2s-.01,0-.02-.01C6.19.12,5.18-.08,4.19.03c-.66.08-1.32.3-1.93.67C.9,1.54.11,2.95.01,4.43c0,.01,0,.02,0,.03C0,4.65,0,4.83.01,5.02c.04.75.27,1.5.69,2.19.46.75,1.09,1.32,1.82,1.7v-4.04s0-.01,0-.02c0-.09,0-.19,0-.28.05-.69.42-1.35,1.06-1.73.65-.4,1.42-.43,2.06-.14l.12.06.11.06,3.71,1.98c-.02-.81-.35-1.8-.8-2.54Z"/>
    </g>
  </g>
  <circle class="cls-1" cx="3.45" cy="37.16" r="1.45"/>
  <rect class="cls-1" x="40.28" y="4.57" width="1.14" height="29.63"/>
  <g>
    <path class="cls-1" d="m46.91,12.28h5.72c2.92,0,5.48,1.4,5.48,4.34s-2.38,4.57-5.75,4.57h-2.28v5.6h-3.17v-14.5Zm3.17,6.57h2.08c1.69,0,2.73-.59,2.73-2.18,0-1.45-1.08-2.05-2.64-2.05h-2.18v4.23Z"/>
    <path class="cls-1" d="m63.55,20.79v5.99h-3.11v-14.5h6.32c2.93,0,5.02,1.36,5.02,3.92,0,1.98-1.12,2.93-2.41,3.39,1.54.56,2.09,1.69,2.09,3.49v.38c0,1.29.08,2.5.21,3.32h-3.05c-.22-.61-.29-1.58-.29-3.37v-.38c0-1.66-.65-2.24-2.67-2.24h-2.11Zm0-2.35h2.36c1.5,0,2.74-.38,2.74-1.98,0-1.34-1.04-1.84-2.31-1.84h-2.8v3.82Z"/>
    <path class="cls-1" d="m87.69,19.47c0,4.17-2.16,7.53-7.05,7.53s-6.83-3.44-6.83-7.56c0-3.57,2.09-7.34,7.05-7.34,4.69,0,6.83,3.47,6.83,7.38Zm-10.61-.02c0,2.89,1.24,5.2,3.69,5.2,2.7,0,3.67-2.14,3.67-5.18,0-2.67-.96-5.03-3.73-5.03-2.57,0-3.64,2.21-3.64,5Z"/>
    <path class="cls-1" d="m97.75,26.79l-3.1-5.19h-.02l-3.11,5.19h-3.36l4.75-7.29-4.62-7.21h3.63l2.91,4.89.02-.02,2.98-4.88h3.34l-4.59,6.93,4.79,7.57h-3.61Z"/>
    <path class="cls-1" d="m106,12.28v14.5h-3.17v-14.5h3.17Z"/>
    <path class="cls-1" d="m121.87,21.37c0-2.47.04-5.41.11-7.04h-.12c-.69,3-2.28,8.35-3.63,12.46h-2.73c-1-3.46-2.62-9.55-3.26-12.5h-.12c.13,1.69.2,4.83.2,7.33v5.17h-2.91v-14.5h4.73c1.11,3.39,2.5,8.44,2.93,10.64h.03c.33-1.88,2.11-7.21,3.28-10.64h4.55v14.5h-3.05v-5.41Z"/>
    <path class="cls-1" d="m130.93,23.34l-1.09,3.45h-3.11c.2-.56,4.52-13.86,4.75-14.5h4.09l4.99,14.5h-3.32l-1.18-3.45h-5.13Zm4.5-2.45c-.96-2.94-1.64-5.01-1.99-6.37h-.03c-.38,1.61-1.08,3.87-1.89,6.37h3.91Z"/>
  </g>
</svg>